<svg viewBox="0 0 64 64" xmlns="http://www.w3.org/2000/svg" xmlns:xlink="http://www.w3.org/1999/xlink" id="Layer_1" xml:space="preserve" overflow="hidden"><style>
.MsftOfcThm_Background1_Stroke_v2 {
 stroke:#051C2C; 
}
</style>
<line x1="56" y1="32" x2="31.9" y2="32" class="MsftOfcThm_Background1_Stroke_v2" stroke="#051C2C" stroke-width="1.33339" stroke-miterlimit="10" fill="none"/><circle cx="59.5" cy="32" r="3.5" class="MsftOfcThm_Background1_Stroke_v2" stroke="#051C2C" stroke-width="1.33339" stroke-miterlimit="10" fill="none"/><path d="" class="MsftOfcThm_Background1_Stroke_v2" stroke="#051C2C" stroke-width="1.33339" stroke-miterlimit="10" fill="none"/><circle cx="49" cy="56" r="3.5" class="MsftOfcThm_Background1_Stroke_v2" stroke="#051C2C" stroke-width="1.33339" stroke-miterlimit="10" fill="none"/><path d="M46.6 10.4 38.9 17.4 31.9 17.4" class="MsftOfcThm_Background1_Stroke_v2" stroke="#051C2C" stroke-width="1.33339" stroke-miterlimit="10" fill="none"/><path d="M46.6 53.6 38.9 46.6 31.9 46.6" class="MsftOfcThm_Background1_Stroke_v2" stroke="#051C2C" stroke-width="1.33339" stroke-miterlimit="10" fill="none"/><circle cx="49" cy="8" r="3.5" class="MsftOfcThm_Background1_Stroke_v2" stroke="#051C2C" stroke-width="1.33339" stroke-miterlimit="10" fill="none"/><path d="M23.7 4.5C19.9 4.5 16.7 7 15.7 10.4 10.8 10.5 7 14.9 7 20.3 7 20.7 7 21.1 7.1 21.5 3.6 23.1 1.1 27.4 1.1 32.6 1.1 35.9 2.1 38.8 3.8 40.9 3.5 42.1 3.4 43.4 3.6 44.7 4.2 50.1 8.7 54.1 13.6 53.6 14.9 57 18.4 59.5 22.6 59.5 27.9 59.5 32.1 55.6 32.1 50.7L32.1 12.7C32 8.2 28.3 4.5 23.7 4.5Z" class="MsftOfcThm_Background1_Stroke_v2" stroke="#051C2C" stroke-width="1.33339" stroke-miterlimit="10" fill="none"/><path d="M23.7 20.9C19.1 20.9 15.4 17.2 15.4 12.7 15.4 11.9 15.5 11.1 15.7 10.4" class="MsftOfcThm_Background1_Stroke_v2" stroke="#051C2C" stroke-width="1.33339" stroke-miterlimit="10" fill="none"/><path d="M12.9 32.2C15.5 33.7 18.5 32.4 20.7 29.9 23.5 26.7 28 25.5 30.7 28.7 31.2 29.3 31.6 29.9 31.9 30.6" class="MsftOfcThm_Background1_Stroke_v2" stroke="#051C2C" stroke-width="1.33339" stroke-miterlimit="10" fill="none"/><path d="M31.9 16.2C28.2 17 24.9 14.9 23.7 11.6" class="MsftOfcThm_Background1_Stroke_v2" stroke="#051C2C" stroke-width="1.33339" stroke-miterlimit="10" fill="none"/><path d="M31.9 45.6C28.2 44.8 24.9 46.9 23.7 50.2" class="MsftOfcThm_Background1_Stroke_v2" stroke="#051C2C" stroke-width="1.33339" stroke-miterlimit="10" fill="none"/><path d="M17.7 18.5C15.5 18.9 13.3 20.3 12.9 23.2" class="MsftOfcThm_Background1_Stroke_v2" stroke="#051C2C" stroke-width="1.33339" stroke-miterlimit="10" fill="none"/><path d="M14.6 45.8C12.2 45.2 10.1 43.9 9.8 41.1" class="MsftOfcThm_Background1_Stroke_v2" stroke="#051C2C" stroke-width="1.33339" stroke-miterlimit="10" fill="none"/><path d="M14.1 55C13.3 53.7 12.9 52.3 12.9 50.7 12.9 45.9 17.2 41.9 22.4 41.9 22.3 41.6 22.3 41.1 22.4 40.7 22.8 37.6 25.3 36 27.2 36" class="MsftOfcThm_Background1_Stroke_v2" stroke="#051C2C" stroke-width="1.33339" stroke-miterlimit="10" fill="none"/><path d="M8.8 28.2C11.1 28.2 13 30 13 32.3 13 34.6 11.1 36.4 8.8 36.4" class="MsftOfcThm_Background1_Stroke_v2" stroke="#051C2C" stroke-width="1.33339" stroke-miterlimit="10" fill="none"/><path d="M31.9 25.7 39.6 25.7 38.9 25.7 40.7 25.7 48 18.7 53.7 18.7" class="MsftOfcThm_Background1_Stroke_v2" stroke="#051C2C" stroke-width="1.33339" stroke-miterlimit="10" fill="none"/><circle cx="57.1" cy="18.7" r="3.5" class="MsftOfcThm_Background1_Stroke_v2" stroke="#051C2C" stroke-width="1.33339" stroke-miterlimit="10" fill="none"/><circle cx="57.1" cy="45.3" r="3.5" class="MsftOfcThm_Background1_Stroke_v2" stroke="#051C2C" stroke-width="1.33339" stroke-miterlimit="10" fill="none"/><path d="M31.9 38.3 39.6 38.3 38.9 38.3 40.7 38.3 48 45.3 53.7 45.3" class="MsftOfcThm_Background1_Stroke_v2" stroke="#051C2C" stroke-width="1.33339" stroke-miterlimit="10" fill="none"/><line x1="32" y1="0.5" x2="32" y2="63.5" class="MsftOfcThm_Background1_Stroke_v2" stroke="#051C2C" stroke-width="1.33339" stroke-miterlimit="10" fill="none"/></svg>