<svg width="1281" height="721" xmlns="http://www.w3.org/2000/svg" xmlns:xlink="http://www.w3.org/1999/xlink" xml:space="preserve" overflow="hidden"><g><path d="M57.9534 179.52 57.9534 652.8 1221.95 652.8 1221.95 179.52ZM0 0 1280 0 1280 720 0 720Z" fill="#FF0000" fill-rule="evenodd" fill-opacity="0.0313726"/><path d="M90.5001 0.500053 90.5002 720.5" stroke="#19D3C5" stroke-linejoin="round" stroke-miterlimit="10" stroke-dasharray="8 3" stroke-opacity="0.4" fill="none" fill-rule="evenodd"/><path d="M1190.5 0.500053 1190.5 720.5" stroke="#19D3C5" stroke-linejoin="round" stroke-miterlimit="10" stroke-dasharray="8 3" stroke-opacity="0.4" fill="none" fill-rule="evenodd"/><path d="M190.5 0.500053 190.5 720.5" stroke="#19D3C5" stroke-linejoin="round" stroke-miterlimit="10" stroke-dasharray="8 3" stroke-opacity="0.4" fill="none" fill-rule="evenodd"/><path d="M290.5 0.500053 290.5 720.5" stroke="#19D3C5" stroke-linejoin="round" stroke-miterlimit="10" stroke-dasharray="8 3" stroke-opacity="0.4" fill="none" fill-rule="evenodd"/><path d="M390.5 0.500053 390.5 720.5" stroke="#19D3C5" stroke-linejoin="round" stroke-miterlimit="10" stroke-dasharray="8 3" stroke-opacity="0.4" fill="none" fill-rule="evenodd"/><path d="M490.5 0.500053 490.5 720.5" stroke="#19D3C5" stroke-linejoin="round" stroke-miterlimit="10" stroke-dasharray="8 3" stroke-opacity="0.4" fill="none" fill-rule="evenodd"/><path d="M590.5 0.500053 590.5 720.5" stroke="#19D3C5" stroke-linejoin="round" stroke-miterlimit="10" stroke-dasharray="8 3" stroke-opacity="0.4" fill="none" fill-rule="evenodd"/><path d="M690.5 0.500053 690.5 720.5" stroke="#19D3C5" stroke-linejoin="round" stroke-miterlimit="10" stroke-dasharray="8 3" stroke-opacity="0.4" fill="none" fill-rule="evenodd"/><path d="M790.5 0.500053 790.5 720.5" stroke="#19D3C5" stroke-linejoin="round" stroke-miterlimit="10" stroke-dasharray="8 3" stroke-opacity="0.4" fill="none" fill-rule="evenodd"/><path d="M890.5 0.500053 890.5 720.5" stroke="#19D3C5" stroke-linejoin="round" stroke-miterlimit="10" stroke-dasharray="8 3" stroke-opacity="0.4" fill="none" fill-rule="evenodd"/><path d="M990.5 0.500053 990.5 720.5" stroke="#19D3C5" stroke-linejoin="round" stroke-miterlimit="10" stroke-dasharray="8 3" stroke-opacity="0.4" fill="none" fill-rule="evenodd"/><path d="M1090.5 0.500053 1090.5 720.5" stroke="#19D3C5" stroke-linejoin="round" stroke-miterlimit="10" stroke-dasharray="8 3" stroke-opacity="0.4" fill="none" fill-rule="evenodd"/><path d="M0 0 58 0 58 720 0 720 0 0Z" fill="#FF0000" fill-rule="evenodd" fill-opacity="0.101961"/><path d="M123 0 158 0 158 720 123 720 123 0Z" fill="#FF0000" fill-rule="evenodd" fill-opacity="0.101961"/><path d="M223 0 258 0 258 720 223 720 223 0Z" fill="#FF0000" fill-rule="evenodd" fill-opacity="0.101961"/><path d="M323 0 358 0 358 720 323 720 323 0Z" fill="#FF0000" fill-rule="evenodd" fill-opacity="0.101961"/><path d="M423 0 458 0 458 720 423 720 423 0Z" fill="#FF0000" fill-rule="evenodd" fill-opacity="0.101961"/><path d="M523 0 558 0 558 720 523 720 523 0Z" fill="#FF0000" fill-rule="evenodd" fill-opacity="0.101961"/><path d="M623 0 658 0 658 720 623 720 623 0Z" fill="#FF0000" fill-rule="evenodd" fill-opacity="0.101961"/><path d="M722 0 758 0 758 720 722 720 722 0Z" fill="#FF0000" fill-rule="evenodd" fill-opacity="0.101961"/><path d="M822 0 858 0 858 720 822 720 822 0Z" fill="#FF0000" fill-rule="evenodd" fill-opacity="0.101961"/><path d="M922 0 958 0 958 720 922 720 922 0Z" fill="#FF0000" fill-rule="evenodd" fill-opacity="0.101961"/><path d="M1022 0 1058 0 1058 720 1022 720 1022 0Z" fill="#FF0000" fill-rule="evenodd" fill-opacity="0.101961"/><path d="M1122 0 1158 0 1158 720 1122 720 1122 0Z" fill="#FF0000" fill-rule="evenodd" fill-opacity="0.101961"/><path d="M1222 0 1280 0 1280 720 1222 720 1222 0Z" fill="#FF0000" fill-rule="evenodd" fill-opacity="0.101961"/><path d="M758 0 822 0 822 720 758 720 758 0Z" fill-rule="evenodd" fill-opacity="0.2"/><path d="M158 0 222 0 222 720 158 720 158 0Z" fill-rule="evenodd" fill-opacity="0.2"/><path d="M258 0 322 0 322 720 258 720 258 0Z" fill-rule="evenodd" fill-opacity="0.2"/><path d="M358 0 422 0 422 720 358 720 358 0Z" fill-rule="evenodd" fill-opacity="0.2"/><path d="M458 0 522 0 522 720 458 720 458 0Z" fill-rule="evenodd" fill-opacity="0.2"/><path d="M558 0 622 0 622 720 558 720 558 0Z" fill-rule="evenodd" fill-opacity="0.2"/><path d="M658 0 722 0 722 720 658 720 658 0Z" fill-rule="evenodd" fill-opacity="0.2"/><path d="M858 0 922 0 922 720 858 720 858 0Z" fill-rule="evenodd" fill-opacity="0.2"/><path d="M958 0 1022 0 1022 720 958 720 958 0Z" fill-rule="evenodd" fill-opacity="0.2"/><path d="M1058 0 1122 0 1122 720 1058 720 1058 0Z" fill-rule="evenodd" fill-opacity="0.2"/><path d="M1158 0 1222 0 1222 720 1158 720 1158 0Z" fill-rule="evenodd" fill-opacity="0.2"/><path d="M58 0 122 0 122 720 58 720 58 0Z" fill-rule="evenodd" fill-opacity="0.2"/><path d="M0.500053 65.5001 1280.18 65.5002" stroke="#19D3C5" stroke-width="0.666667" stroke-miterlimit="8" stroke-opacity="0.2" fill="none" fill-rule="evenodd"/><path d="M0.500053 33.5001 1280.18 33.5002" stroke="#19D3C5" stroke-width="0.666667" stroke-miterlimit="8" stroke-opacity="0.2" fill="none" fill-rule="evenodd"/><path d="M0.500053 0.500053 1280.18 0.500157" stroke="#19D3C5" stroke-width="0.666667" stroke-miterlimit="8" stroke-opacity="0.2" fill="none" fill-rule="evenodd"/><path d="M0.500053 131.5 1280.18 131.5" stroke="#19D3C5" stroke-width="0.666667" stroke-miterlimit="8" stroke-opacity="0.2" fill="none" fill-rule="evenodd"/><path d="M0.500053 98.5001 1280.18 98.5002" stroke="#19D3C5" stroke-width="0.666667" stroke-miterlimit="8" stroke-opacity="0.2" fill="none" fill-rule="evenodd"/><path d="M0.500053 196.5 1280.18 196.5" stroke="#19D3C5" stroke-width="0.666667" stroke-miterlimit="8" stroke-opacity="0.2" fill="none" fill-rule="evenodd"/><path d="M0.500053 163.5 1280.18 163.5" stroke="#19D3C5" stroke-width="0.666667" stroke-miterlimit="8" stroke-opacity="0.2" fill="none" fill-rule="evenodd"/><path d="M0.500053 261.5 1280.18 261.5" stroke="#19D3C5" stroke-width="0.666667" stroke-miterlimit="8" stroke-opacity="0.2" fill="none" fill-rule="evenodd"/><path d="M0.500053 228.5 1280.18 228.5" stroke="#19D3C5" stroke-width="0.666667" stroke-miterlimit="8" stroke-opacity="0.2" fill="none" fill-rule="evenodd"/><path d="M0.500053 326.5 1280.18 326.5" stroke="#19D3C5" stroke-width="0.666667" stroke-miterlimit="8" stroke-opacity="0.2" fill="none" fill-rule="evenodd"/><path d="M0.500053 294.5 1280.18 294.5" stroke="#19D3C5" stroke-width="0.666667" stroke-miterlimit="8" stroke-opacity="0.2" fill="none" fill-rule="evenodd"/><path d="M0.500053 392.5 1280.18 392.5" stroke="#19D3C5" stroke-width="0.666667" stroke-miterlimit="8" stroke-opacity="0.2" fill="none" fill-rule="evenodd"/><path d="M0.500053 359.5 1280.18 359.5" stroke="#19D3C5" stroke-width="0.666667" stroke-miterlimit="8" stroke-opacity="0.2" fill="none" fill-rule="evenodd"/><path d="M0.500053 457.5 1280.18 457.5" stroke="#19D3C5" stroke-width="0.666667" stroke-miterlimit="8" stroke-opacity="0.2" fill="none" fill-rule="evenodd"/><path d="M0.500053 424.5 1280.18 424.5" stroke="#19D3C5" stroke-width="0.666667" stroke-miterlimit="8" stroke-opacity="0.2" fill="none" fill-rule="evenodd"/><path d="M0.500053 522.5 1280.18 522.5" stroke="#19D3C5" stroke-width="0.666667" stroke-miterlimit="8" stroke-opacity="0.2" fill="none" fill-rule="evenodd"/><path d="M0.500053 490.5 1280.18 490.5" stroke="#19D3C5" stroke-width="0.666667" stroke-miterlimit="8" stroke-opacity="0.2" fill="none" fill-rule="evenodd"/><path d="M0.500053 588.5 1280.18 588.5" stroke="#19D3C5" stroke-width="0.666667" stroke-miterlimit="8" stroke-opacity="0.2" fill="none" fill-rule="evenodd"/><path d="M0.500053 555.5 1280.18 555.5" stroke="#19D3C5" stroke-width="0.666667" stroke-miterlimit="8" stroke-opacity="0.2" fill="none" fill-rule="evenodd"/><path d="M0.500053 653.5 1280.18 653.5" stroke="#19D3C5" stroke-width="0.666667" stroke-miterlimit="8" stroke-opacity="0.2" fill="none" fill-rule="evenodd"/><path d="M0.500053 620.5 1280.18 620.5" stroke="#19D3C5" stroke-width="0.666667" stroke-miterlimit="8" stroke-opacity="0.2" fill="none" fill-rule="evenodd"/><path d="M0.500053 685.5 1280.18 685.5" stroke="#19D3C5" stroke-width="0.666667" stroke-miterlimit="8" stroke-opacity="0.2" fill="none" fill-rule="evenodd"/><path d="M0.500053 82.5001 1280.18 82.5002" stroke="#19D3C5" stroke-width="0.666667" stroke-miterlimit="8" stroke-opacity="0.2" fill="none" fill-rule="evenodd"/><path d="M0.500053 49.5001 1280.18 49.5002" stroke="#19D3C5" stroke-width="0.666667" stroke-miterlimit="8" stroke-opacity="0.2" fill="none" fill-rule="evenodd"/><path d="M0.500053 16.5001 1280.18 16.5002" stroke="#19D3C5" stroke-width="0.666667" stroke-miterlimit="8" stroke-opacity="0.2" fill="none" fill-rule="evenodd"/><path d="M0.500053 147.5 1280.18 147.5" stroke="#19D3C5" stroke-width="0.666667" stroke-miterlimit="8" stroke-opacity="0.2" fill="none" fill-rule="evenodd"/><path d="M0.500053 114.5 1280.18 114.5" stroke="#19D3C5" stroke-width="0.666667" stroke-miterlimit="8" stroke-opacity="0.2" fill="none" fill-rule="evenodd"/><path d="M0.500053 212.5 1280.18 212.5" stroke="#19D3C5" stroke-width="0.666667" stroke-miterlimit="8" stroke-opacity="0.2" fill="none" fill-rule="evenodd"/><path d="M0.500053 180.5 1280.18 180.5" stroke="#19D3C5" stroke-width="0.666667" stroke-miterlimit="8" stroke-opacity="0.2" fill="none" fill-rule="evenodd"/><path d="M0.500053 277.5 1280.18 277.5" stroke="#19D3C5" stroke-width="0.666667" stroke-miterlimit="8" stroke-opacity="0.2" fill="none" fill-rule="evenodd"/><path d="M0.500053 245.5 1280.18 245.5" stroke="#19D3C5" stroke-width="0.666667" stroke-miterlimit="8" stroke-opacity="0.2" fill="none" fill-rule="evenodd"/><path d="M0.500053 343.5 1280.18 343.5" stroke="#19D3C5" stroke-width="0.666667" stroke-miterlimit="8" stroke-opacity="0.2" fill="none" fill-rule="evenodd"/><path d="M0.500053 310.5 1280.18 310.5" stroke="#19D3C5" stroke-width="0.666667" stroke-miterlimit="8" stroke-opacity="0.2" fill="none" fill-rule="evenodd"/><path d="M0.500053 408.5 1280.18 408.5" stroke="#19D3C5" stroke-width="0.666667" stroke-miterlimit="8" stroke-opacity="0.2" fill="none" fill-rule="evenodd"/><path d="M0.500053 375.5 1280.18 375.5" stroke="#19D3C5" stroke-width="0.666667" stroke-miterlimit="8" stroke-opacity="0.2" fill="none" fill-rule="evenodd"/><path d="M0.500053 473.5 1280.18 473.5" stroke="#19D3C5" stroke-width="0.666667" stroke-miterlimit="8" stroke-opacity="0.2" fill="none" fill-rule="evenodd"/><path d="M0.500053 441.5 1280.18 441.5" stroke="#19D3C5" stroke-width="0.666667" stroke-miterlimit="8" stroke-opacity="0.2" fill="none" fill-rule="evenodd"/><path d="M0.500053 539.5 1280.18 539.5" stroke="#19D3C5" stroke-width="0.666667" stroke-miterlimit="8" stroke-opacity="0.2" fill="none" fill-rule="evenodd"/><path d="M0.500053 506.5 1280.18 506.5" stroke="#19D3C5" stroke-width="0.666667" stroke-miterlimit="8" stroke-opacity="0.2" fill="none" fill-rule="evenodd"/><path d="M0.500053 604.5 1280.18 604.5" stroke="#19D3C5" stroke-width="0.666667" stroke-miterlimit="8" stroke-opacity="0.2" fill="none" fill-rule="evenodd"/><path d="M0.500053 571.5 1280.18 571.5" stroke="#19D3C5" stroke-width="0.666667" stroke-miterlimit="8" stroke-opacity="0.2" fill="none" fill-rule="evenodd"/><path d="M0.500053 669.5 1280.18 669.5" stroke="#19D3C5" stroke-width="0.666667" stroke-miterlimit="8" stroke-opacity="0.2" fill="none" fill-rule="evenodd"/><path d="M0.500053 636.5 1280.18 636.5" stroke="#19D3C5" stroke-width="0.666667" stroke-miterlimit="8" stroke-opacity="0.2" fill="none" fill-rule="evenodd"/><path d="M0.500053 702.5 1280.18 702.5" stroke="#19D3C5" stroke-width="0.666667" stroke-miterlimit="8" stroke-opacity="0.2" fill="none" fill-rule="evenodd"/><rect x="58.5001" y="180.5" width="1164" height="473" stroke="#19D3C5" stroke-width="1.33333" stroke-linejoin="round" stroke-miterlimit="10" stroke-opacity="0.501961" fill="none"/><path d="M58.5001 229.5 1222.02 229.5" stroke="#19D3C5" stroke-width="1.33333" stroke-linejoin="round" stroke-miterlimit="10" stroke-opacity="0.501961" fill="none" fill-rule="evenodd"/><path d="M58.5001 180.5 1222.02 180.5" stroke="#19D3C5" stroke-width="1.33333" stroke-linejoin="round" stroke-miterlimit="10" stroke-opacity="0.501961" fill="none" fill-rule="evenodd"/></g></svg>