<svg viewBox="0 0 64 64" xmlns="http://www.w3.org/2000/svg" xmlns:xlink="http://www.w3.org/1999/xlink" id="Layer_3" xml:space="preserve" overflow="hidden"><style>
.MsftOfcThm_Background1_Stroke_v2 {
 stroke:#051C2C; 
}
</style>
<circle cx="13.7" cy="22.5" r="4.5" class="MsftOfcThm_Background1_Stroke_v2" stroke="#051C2C" stroke-width="1.33333" stroke-miterlimit="10" fill="none"/><circle cx="26.7" cy="22.5" r="4.5" class="MsftOfcThm_Background1_Stroke_v2" stroke="#051C2C" stroke-width="1.33333" stroke-miterlimit="10" fill="none"/><path d="M36.7 30 38.7 30 38.7 18 36.7 18 36.7 15.4C36.7 12.4 34.3 10 31.3 10L9.1 10C6.1 10 3.7 12.4 3.7 15.4L3.7 18 1.7 18 1.7 30 3.7 30 3.7 34 36.7 34 36.7 30Z" class="MsftOfcThm_Background1_Stroke_v2" stroke="#051C2C" stroke-width="1.33333" stroke-miterlimit="10" fill="none"/><line x1="20.2" y1="10" x2="20.2" y2="1" class="MsftOfcThm_Background1_Stroke_v2" stroke="#051C2C" stroke-width="1.33333" stroke-miterlimit="10" fill="none"/><line x1="12.2" y1="63" x2="12.2" y2="39" class="MsftOfcThm_Background1_Stroke_v2" stroke="#051C2C" stroke-width="1.33333" stroke-miterlimit="10" fill="none"/><line x1="27.2" y1="39" x2="27.2" y2="63" class="MsftOfcThm_Background1_Stroke_v2" stroke="#051C2C" stroke-width="1.33333" stroke-miterlimit="10" fill="none"/><path d="M22.2 34 22.2 39 32.8 39 33.9 46.5 41.7 46.5" class="MsftOfcThm_Background1_Stroke_v2" stroke="#051C2C" stroke-width="1.33333" stroke-miterlimit="10" fill="none"/><path d="M6.2 60 6.2 39 17.2 39 17.2 34" class="MsftOfcThm_Background1_Stroke_v2" stroke="#051C2C" stroke-width="1.33333" stroke-miterlimit="10" fill="none"/><line x1="34.8" y1="52.3" x2="47.5" y2="41.4" class="MsftOfcThm_Background1_Stroke_v2" stroke="#051C2C" stroke-width="1.33333" stroke-miterlimit="10" fill="none"/><circle cx="53.5" cy="35" r="8.8" class="MsftOfcThm_Background1_Stroke_v2" stroke="#051C2C" stroke-width="1.33333" stroke-miterlimit="10" fill="none"/></svg>