<svg viewBox="0 0 64 64" xmlns="http://www.w3.org/2000/svg" xmlns:xlink="http://www.w3.org/1999/xlink" id="Layer_3" xml:space="preserve" overflow="hidden"><style>
.MsftOfcThm_Background1_Stroke_v2 {
 stroke:#051C2C; 
}
</style>
<circle cx="43.1" cy="31.9" r="11.7" class="MsftOfcThm_Background1_Stroke_v2" stroke="#051C2C" stroke-width="1.33339" stroke-miterlimit="10" fill="none"/><rect x="53.1" y="46.1" width="5.1" height="15.1" class="MsftOfcThm_Background1_Stroke_v2" stroke="#051C2C" stroke-width="1.33339" stroke-miterlimit="10.0006" fill="none" transform="matrix(0.8657 -0.5006 0.5006 0.8657 -19.3701 35.072)"/><line x1="48.9" y1="42.1" x2="51.8" y2="47.1" class="MsftOfcThm_Background1_Stroke_v2" stroke="#051C2C" stroke-width="1.33339" stroke-miterlimit="10" fill="none"/><circle cx="31.4" cy="7.2" r="6.2" class="MsftOfcThm_Background1_Stroke_v2" stroke="#051C2C" stroke-width="1.33339" stroke-miterlimit="10" fill="none"/><path d="M24.8 22.9 24.8 63 38.1 63 38.1 46.3" class="MsftOfcThm_Background1_Stroke_v2" stroke="#051C2C" stroke-width="1.33339" stroke-miterlimit="10" fill="none"/><line x1="31.4" y1="42.9" x2="31.4" y2="63" class="MsftOfcThm_Background1_Stroke_v2" stroke="#051C2C" stroke-width="1.33339" stroke-miterlimit="10" fill="none"/><path d="M37.8 16.4 25 16.4C21.9 16.4 19.4 19 19.4 22L19.4 42.8 24.8 42.8" class="MsftOfcThm_Background1_Stroke_v2" stroke="#051C2C" stroke-width="1.33339" stroke-miterlimit="10" fill="none"/><line x1="13.5" y1="46.3" x2="13.5" y2="60.2" class="MsftOfcThm_Background1_Stroke_v2" stroke="#051C2C" stroke-width="1.33339" stroke-miterlimit="10" fill="none"/><path d="M7.2 28.3 2.3 46.3 21 46.3" class="MsftOfcThm_Background1_Stroke_v2" stroke="#051C2C" stroke-width="1.33339" stroke-miterlimit="10" fill="none"/><path d="M19.6 46.3 19.6 60.2 7.3 60.2 7.3 46.3" class="MsftOfcThm_Background1_Stroke_v2" stroke="#051C2C" stroke-width="1.33339" stroke-miterlimit="10" fill="none"/><circle cx="13.5" cy="8.7" r="5.7" class="MsftOfcThm_Background1_Stroke_v2" stroke="#051C2C" stroke-width="1.33339" stroke-miterlimit="10" fill="none"/><path d="M17.3 17.4 7.5 17.4C4.7 17.4 2.4 19.8 2.4 22.5L2.4 37.5 4.7 37.5" class="MsftOfcThm_Background1_Stroke_v2" stroke="#051C2C" stroke-width="1.33339" stroke-miterlimit="10" fill="none"/></svg>