<svg viewBox="0 0 1920 1080" xmlns="http://www.w3.org/2000/svg" xmlns:xlink="http://www.w3.org/1999/xlink" id="Partnership_Mark_PPT" xml:space="preserve" overflow="hidden"><g id="EB500_x5F_C500"><g><g><g><g><defs><rect x="0" y="0" width="1920" height="1080" id="SVGID_1_"/></defs><clipPath id="SVGID_00000049933907024004130510000003425711172140995995_"><use width="100%" height="100%" xlink:href="#SVGID_1_" overflow="visible"></use></clipPath><g clip-path="url(#SVGID_00000049933907024004130510000003425711172140995995_)"><g><line x1="4990.9" y1="-2622.1" x2="-2068.1" y2="3413.6" stroke="#00A9F4" stroke-miterlimit="10" fill="none"/></g><g><line x1="4883.3" y1="-2651.6" x2="-1979.2" y2="3461.4" stroke="#01A7F4" stroke-miterlimit="10" fill="none"/></g><g><line x1="4775.7" y1="-2681.2" x2="-1890.3" y2="3509.1" stroke="#02A5F5" stroke-miterlimit="10" fill="none"/></g><g><line x1="4668" y1="-2710.7" x2="-1801.4" y2="3556.8" stroke="#02A3F5" stroke-miterlimit="10" fill="none"/></g><g><line x1="4560.4" y1="-2740.3" x2="-1712.5" y2="3604.5" stroke="#03A0F5" stroke-miterlimit="10" fill="none"/></g><g><line x1="4452.8" y1="-2769.8" x2="-1623.6" y2="3652.2" stroke="#049EF5" stroke-miterlimit="10" fill="none"/></g><g><line x1="4345.2" y1="-2799.4" x2="-1534.7" y2="3700" stroke="#059CF6" stroke-miterlimit="10" fill="none"/></g><g><line x1="4237.5" y1="-2829" x2="-1445.8" y2="3747.7" stroke="#069AF6" stroke-miterlimit="10" fill="none"/></g><g><line x1="4129.9" y1="-2858.5" x2="-1356.9" y2="3795.4" stroke="#0798F6" stroke-miterlimit="10" fill="none"/></g><g><line x1="4022.3" y1="-2888.1" x2="-1268" y2="3843.1" stroke="#0796F6" stroke-miterlimit="10" fill="none"/></g><g><line x1="3914.7" y1="-2917.6" x2="-1179.1" y2="3890.9" stroke="#0894F7" stroke-miterlimit="10" fill="none"/></g><g><line x1="3807.1" y1="-2947.2" x2="-1090.2" y2="3938.6" stroke="#0991F7" stroke-miterlimit="10" fill="none"/></g><g><line x1="3699.4" y1="-2976.8" x2="-1001.4" y2="3986.3" stroke="#0A8FF7" stroke-miterlimit="10" fill="none"/></g><g><line x1="3591.8" y1="-3006.3" x2="-912.5" y2="4034" stroke="#0B8DF7" stroke-miterlimit="10" fill="none"/></g><g><line x1="3484.2" y1="-3035.9" x2="-823.6" y2="4081.7" stroke="#0C8BF8" stroke-miterlimit="10" fill="none"/></g><g><line x1="3376.6" y1="-3065.4" x2="-734.7" y2="4129.5" stroke="#0C89F8" stroke-miterlimit="10" fill="none"/></g><g><line x1="3268.9" y1="-3095" x2="-645.8" y2="4177.2" stroke="#0D87F8" stroke-miterlimit="10" fill="none"/></g><g><line x1="3161.3" y1="-3124.6" x2="-556.9" y2="4224.9" stroke="#0E85F9" stroke-miterlimit="10" fill="none"/></g><g><line x1="3053.7" y1="-3154.1" x2="-468" y2="4272.6" stroke="#0F82F9" stroke-miterlimit="10" fill="none"/></g><g><line x1="2946.1" y1="-3183.7" x2="-379.1" y2="4320.4" stroke="#1080F9" stroke-miterlimit="10" fill="none"/></g><g><line x1="2838.5" y1="-3213.2" x2="-290.2" y2="4368.1" stroke="#117EF9" stroke-miterlimit="10" fill="none"/></g><g><line x1="2730.8" y1="-3242.8" x2="-201.3" y2="4415.8" stroke="#117CFA" stroke-miterlimit="10" fill="none"/></g><g><line x1="2623.2" y1="-3272.3" x2="-112.4" y2="4463.5" stroke="#127AFA" stroke-miterlimit="10" fill="none"/></g><g><line x1="2515.6" y1="-3301.9" x2="-23.5" y2="4511.3" stroke="#1378FA" stroke-miterlimit="10" fill="none"/></g><g><line x1="2408" y1="-3331.5" x2="65.4" y2="4559" stroke="#1475FA" stroke-miterlimit="10" fill="none"/></g><g><line x1="2300.3" y1="-3361" x2="154.3" y2="4606.7" stroke="#1573FB" stroke-miterlimit="10" fill="none"/></g><g><line x1="2192.7" y1="-3390.6" x2="243.2" y2="4654.4" stroke="#1671FB" stroke-miterlimit="10" fill="none"/></g><g><line x1="2085.1" y1="-3420.1" x2="332.1" y2="4702.1" stroke="#166FFB" stroke-miterlimit="10" fill="none"/></g><g><line x1="1977.5" y1="-3449.7" x2="421" y2="4749.9" stroke="#176DFC" stroke-miterlimit="10" fill="none"/></g><g><line x1="1869.8" y1="-3479.3" x2="509.9" y2="4797.6" stroke="#186BFC" stroke-miterlimit="10" fill="none"/></g><g><line x1="1762.2" y1="-3508.8" x2="598.8" y2="4845.3" stroke="#1969FC" stroke-miterlimit="10" fill="none"/></g><g><line x1="1654.6" y1="-3538.4" x2="687.7" y2="4893" stroke="#1A66FC" stroke-miterlimit="10" fill="none"/></g><g><line x1="1547" y1="-3567.9" x2="776.6" y2="4940.8" stroke="#1B64FD" stroke-miterlimit="10" fill="none"/></g><g><line x1="1439.4" y1="-3597.5" x2="865.5" y2="4988.5" stroke="#1B62FD" stroke-miterlimit="10" fill="none"/></g><g><line x1="1331.7" y1="-3627.1" x2="954.4" y2="5036.2" stroke="#1C60FD" stroke-miterlimit="10" fill="none"/></g><g><line x1="1224.1" y1="-3656.6" x2="1043.2" y2="5083.9" stroke="#1D5EFD" stroke-miterlimit="10" fill="none"/></g><g><line x1="1116.5" y1="-3686.2" x2="1132.1" y2="5131.6" stroke="#1E5CFE" stroke-miterlimit="10" fill="none"/></g><g><line x1="1008.9" y1="-3715.7" x2="1221" y2="5179.4" stroke="#1F5AFE" stroke-miterlimit="10" fill="none"/></g><g><line x1="901.2" y1="-3745.3" x2="1309.9" y2="5227.1" stroke="#2057FE" stroke-miterlimit="10" fill="none"/></g><g><line x1="793.6" y1="-3774.8" x2="1398.8" y2="5274.8" stroke="#2055FE" stroke-miterlimit="10" fill="none"/></g><g><line x1="686" y1="-3804.4" x2="1487.7" y2="5322.5" stroke="#2153FF" stroke-miterlimit="10" fill="none"/></g><g><line x1="578.4" y1="-3834" x2="1576.6" y2="5370.3" stroke="#2251FF" stroke-miterlimit="10" fill="none"/></g></g></g></g></g></g></g></svg>