<svg viewBox="0 0 34 34" xmlns="http://www.w3.org/2000/svg" xmlns:xlink="http://www.w3.org/1999/xlink" id="Layer_1" xml:space="preserve" overflow="hidden"><style>
.MsftOfcThm_Background1_Fill_v2 {
 fill:#FFFFFF; 
}
.MsftOfcThm_Background1_Stroke_v2 {
 stroke:#FFFFFF; 
}
</style>
<rect x="15.8" y="23.7" width="1.5" height="2.2" class="st0 MsftOfcThm_Background1_Fill_v2 MsftOfcThm_Background1_Stroke_v2" stroke="#FFFFFF" fill="#FFFFFF"/><path d="M19.5 17.4C20.9 16.1 21.9 14.8 21.9 12.7 21.9 10 19.9 8.1 17 8.1 14.1 8.1 12.2 9.9 12.2 12.7 12.2 13.3 12.3 13.9 12.5 14.7L13.7 14.9C13.4 14.1 13.2 13.4 13.2 12.8 13.2 10.9 14.4 8.9 17 8.9 19.3 8.9 20.9 10.5 20.9 12.7 20.9 14.3 20.3 15.4 18.9 16.7L17.9 17.6C16.2 19.1 16.1 19.8 16.1 21.1L16.1 21.9 17.1 21.9 17.1 21.4C17.1 19.6 17.4 19.3 18.9 17.9L19.5 17.4Z" class="st0 MsftOfcThm_Background1_Fill_v2 MsftOfcThm_Background1_Stroke_v2" stroke="#FFFFFF" fill="#FFFFFF"/></svg>