<svg viewBox="0 0 64 64" xmlns="http://www.w3.org/2000/svg" xmlns:xlink="http://www.w3.org/1999/xlink" id="Layer_3" xml:space="preserve" overflow="hidden"><style>
.MsftOfcThm_Background1_Stroke_v2 {
 stroke:#051C2C; 
}
</style>
<line x1="25.1" y1="15.4" x2="39" y2="15.4" class="MsftOfcThm_Background1_Stroke_v2" stroke="#051C2C" stroke-width="1.33329" stroke-miterlimit="10" fill="none"/><line x1="39" y1="6.4" x2="25.1" y2="6.4" class="MsftOfcThm_Background1_Stroke_v2" stroke="#051C2C" stroke-width="1.33329" stroke-miterlimit="10" fill="none"/><path d="M33.5 10 39 15.4 33.5 20.9" class="MsftOfcThm_Background1_Stroke_v2" stroke="#051C2C" stroke-width="1.33329" stroke-miterlimit="10" fill="none"/><path d="M30.6 11.8 25.1 6.4 30.6 1" class="MsftOfcThm_Background1_Stroke_v2" stroke="#051C2C" stroke-width="1.33329" stroke-miterlimit="10" fill="none"/><ellipse cx="13.7" cy="7.2" rx="6.2" ry="6.2" class="MsftOfcThm_Background1_Stroke_v2" stroke="#051C2C" stroke-width="1.33329" stroke-miterlimit="10" fill="none"/><path d="M21.6 42 26.3 42 24.8 23C24.5 19.2 21.4 16.4 17.6 16.4L9.7 16.4C5.9 16.4 2.8 19.3 2.5 23L1 42 5.8 42" class="MsftOfcThm_Background1_Stroke_v2" stroke="#051C2C" stroke-width="1.33329" stroke-miterlimit="10" fill="none"/><path d="M22 37.2 20 63 7.4 63 5.4 37.2" class="MsftOfcThm_Background1_Stroke_v2" stroke="#051C2C" stroke-width="1.33329" stroke-miterlimit="10" fill="none"/><ellipse cx="50.4" cy="7.2" rx="6.2" ry="6.2" class="MsftOfcThm_Background1_Stroke_v2" stroke="#051C2C" stroke-width="1.33329" stroke-miterlimit="10" fill="none"/><path d="M58.3 42 63 42 61.5 23C61.2 19.2 58.1 16.4 54.3 16.4L46.4 16.4C42.6 16.4 39.5 19.3 39.2 23L37.7 42 42.5 42" class="MsftOfcThm_Background1_Stroke_v2" stroke="#051C2C" stroke-width="1.33329" stroke-miterlimit="10" fill="none"/><path d="M58.7 37.2 56.7 63 44.1 63 42.1 37.2" class="MsftOfcThm_Background1_Stroke_v2" stroke="#051C2C" stroke-width="1.33329" stroke-miterlimit="10" fill="none"/></svg>