<svg viewBox="0 0 64 64" xmlns="http://www.w3.org/2000/svg" xmlns:xlink="http://www.w3.org/1999/xlink" id="Layer_5" overflow="hidden"><style>
.MsftOfcThm_Accent1_Stroke_v2 {
 stroke:#282828; 
}
</style>
<path d="M49.1 57.9C44.2 61.1 38.3 63 32 63 14.9 63 1 49.1 1 32 1 14.9 14.9 1 32 1 49.1 1 63 14.9 63 32 63 38.4 61.1 44.4 57.7 49.3" class="MsftOfcThm_Accent1_Stroke_v2" stroke="#282828" stroke-width="1.64094" stroke-miterlimit="10" fill="none"/><path d="M45.1 51.8C41.3 54.3 36.9 55.7 32 55.7 18.9 55.7 8.3 45.1 8.3 32 8.3 18.9 18.9 8.3 32 8.3 45.1 8.3 55.7 18.9 55.7 32 55.7 36.9 54.2 41.5 51.6 45.3" class="MsftOfcThm_Accent1_Stroke_v2" stroke="#282828" stroke-width="1.64094" stroke-miterlimit="10" fill="none"/><path d="M40.8 45.3C38.3 47 35.3 47.9 32 47.9 23.2 47.9 16.1 40.8 16.1 32 16.1 23.2 23.2 16.1 32 16.1 40.8 16.1 47.9 23.2 47.9 32 47.9 35.3 46.9 38.4 45.2 40.9" class="MsftOfcThm_Accent1_Stroke_v2" stroke="#282828" stroke-width="1.64094" stroke-miterlimit="10" fill="none"/><line x1="32" y1="32" x2="54.3" y2="54.5" class="MsftOfcThm_Accent1_Stroke_v2" stroke="#282828" stroke-width="1.64094" stroke-miterlimit="10" fill="none"/><path d="M32 41 32 32 41 32" class="MsftOfcThm_Accent1_Stroke_v2" stroke="#282828" stroke-width="1.64094" stroke-miterlimit="10" fill="none"/></svg>