<svg viewBox="0 0 64 64" xmlns="http://www.w3.org/2000/svg" xmlns:xlink="http://www.w3.org/1999/xlink" id="Layer_5" xml:space="preserve" overflow="hidden"><g><path d="M32 51.9C32 51.9 31 36.4 47.2 37.5 47.3 37.6 47.4 52.6 32 51.9Z" stroke="#051C2C" stroke-width="1.33333" stroke-miterlimit="10" fill="none"/><path d="M32 56.4C32 56.4 33 40.8 16.8 42 16.7 41.9 16.7 56.9 32 56.4Z" stroke="#051C2C" stroke-width="1.33333" stroke-miterlimit="10" fill="none"/></g><path d="M42.5 24.1C42.3 30 37.4 34.6 31.4 34.4 25.9 34.3 21.3 29.8 21.2 24.1L21.2 11 42.7 11 42.5 24.1 42.5 24.1Z" stroke="#051C2C" stroke-width="1.33333" stroke-miterlimit="10" fill="none"/><line x1="27.1" y1="1" x2="27.1" y2="11" stroke="#051C2C" stroke-width="1.33333" stroke-miterlimit="10" fill="none"/><line x1="36.9" y1="1" x2="36.9" y2="11" stroke="#051C2C" stroke-width="1.33333" stroke-miterlimit="10" fill="none"/><line x1="32" y1="34.6" x2="32" y2="63" stroke="#051C2C" stroke-width="1.33333" stroke-miterlimit="10" fill="none"/></svg>