<svg viewBox="0 0 64 64" xmlns="http://www.w3.org/2000/svg" xmlns:xlink="http://www.w3.org/1999/xlink" id="Layer_5" xml:space="preserve" overflow="hidden"><circle cx="57.4" cy="14.1" r="5.6" stroke="#000000" stroke-width="1.33333" stroke-miterlimit="10" fill="none"/><path d="M62.9 32.8 62.9 26.7C62.9 24.5 61.1 22.7 58.9 22.7L54.9 22.7C52.7 22.7 50.9 23.5 50.9 25.7L50.9 26.1" stroke="#000000" stroke-width="1.33333" stroke-miterlimit="10" fill="none"/><circle cx="6.6" cy="14.1" r="5.6" stroke="#000000" stroke-width="1.33333" stroke-miterlimit="10" fill="none"/><path d="M13.1 26 13.1 25.6C13.1 23.4 11.3 22.6 9.1 22.6L5.1 22.6C2.9 22.6 1.1 24.4 1.1 26.6L1.1 32.7" stroke="#000000" stroke-width="1.33333" stroke-miterlimit="10" fill="none"/><path d="M16.9 54.1C7.4 51.6 1 46.6 1 41 1 32.7 14.9 25.9 32 25.9 49.1 25.9 63 32.6 63 41 63 46.7 56.6 51.6 47.1 54.2" stroke="#000000" stroke-width="1.33333" stroke-miterlimit="10" fill="none"/><path d="M42.6 23.6 42.5 22.4C42.2 19 39.4 16.3 36 16.3L28.2 16.3C24.7 16.3 22 18.9 21.7 22.4L21.6 23.3" stroke="#000000" stroke-width="1.33333" stroke-miterlimit="10" fill="none"/><circle cx="32" cy="7.5" r="5.8" stroke="#000000" stroke-width="1.33333" stroke-miterlimit="10" fill="none"/><path d="M44 62.3 43.5 53.9C43.2 50.2 40.1 47.2 36.4 47.2L27.9 47.2C24.1 47.2 21.1 50 20.8 53.9L20 62.3" stroke="#000000" stroke-width="1.33333" stroke-miterlimit="10" fill="none"/><circle cx="32" cy="37.9" r="6.3" stroke="#000000" stroke-width="1.33333" stroke-miterlimit="10" fill="none"/></svg>