<svg viewBox="0 0 64 64" xmlns="http://www.w3.org/2000/svg" xmlns:xlink="http://www.w3.org/1999/xlink" id="Layer_3" xml:space="preserve" overflow="hidden"><path d="" stroke="#051C2C" stroke-width="1.33333" stroke-miterlimit="10" fill="none"/><line x1="13.9" y1="11.2" x2="13.9" y2="37.1" stroke="#051C2C" stroke-width="1.33333" stroke-miterlimit="10" fill="none"/><path d="M26.9 24.2C26.9 31.3 21.1 37.1 13.9 37.1 6.7 37.1 1 31.3 1 24.2 1 17.1 6.8 11.3 14 11.3 21.2 11.3 26.9 17 26.9 24.2L26.9 24.2Z" stroke="#051C2C" stroke-width="1.33333" stroke-miterlimit="10" fill="none"/><path d="M21.2 24.2C21.2 31.3 18 37.1 14 37.1 10 37.1 6.8 31.3 6.8 24.2 6.8 17.1 10 11.2 14 11.2 18 11.2 21.2 17 21.2 24.2L21.2 24.2Z" stroke="#051C2C" stroke-width="1.33333" stroke-miterlimit="10" fill="none"/><line x1="1" y1="24.2" x2="26.9" y2="24.2" stroke="#051C2C" stroke-width="1.33333" stroke-miterlimit="10" fill="none"/><line x1="48.3" y1="47.9" x2="43.4" y2="47.9" stroke="#051C2C" stroke-width="1.33333" stroke-miterlimit="10" fill="none"/><path d="M29.9 24.2 43.4 24.2 43.4 47.9 31.9 47.9" stroke="#051C2C" stroke-width="1.33333" stroke-miterlimit="10" fill="none"/><path d="M13.9 40.1 13.9 47.9 22.1 47.9" stroke="#051C2C" stroke-width="1.33333" stroke-miterlimit="10" fill="none"/><circle cx="27" cy="47.9" r="4.9" stroke="#051C2C" stroke-width="1.33333" stroke-miterlimit="10" fill="none"/><circle cx="52.4" cy="48.6" r="4.1" stroke="#051C2C" stroke-width="1.33333" stroke-miterlimit="10" fill="none"/><path d="M58.1 36.4 49.9 36.4 49.9 28.2" stroke="#051C2C" stroke-width="1.33333" stroke-miterlimit="10" fill="none"/><path d="M43.4 28.2 54.9 28.2C56.7 28.2 58.1 29.7 58.1 31.4L58.1 36.3 61.1 37.3C62.2 37.7 63 38.7 63 39.9L63 47.7 56.4 47.7" stroke="#051C2C" stroke-width="1.33333" stroke-miterlimit="10" fill="none"/><path d="" stroke="#051C2C" stroke-width="1.33333" stroke-miterlimit="10" fill="none"/><path d="" stroke="#051C2C" stroke-width="1.33333" stroke-miterlimit="10" fill="none"/></svg>