<svg viewBox="0 0 64 64" xmlns="http://www.w3.org/2000/svg" xmlns:xlink="http://www.w3.org/1999/xlink" id="Layer_5" overflow="hidden"><style>
.MsftOfcThm_Background1_Stroke_v2 {
 stroke:#051C2C; 
}
</style>
<path d="M11.4 42.4 37.5 42.4C39.9 42.5 41.6 44.4 41.5 46.8 41.4 48.9 39.7 50.7 37.5 50.8L30.2 50.8" class="MsftOfcThm_Background1_Stroke_v2" stroke="#051C2C" stroke-width="1.3334" stroke-miterlimit="10" fill="none"/><path d="M40.9 48.7 46.7 48.7 51.3 43.5 55.9 38.3C57.3 37 59.5 36.9 61.1 37.9L61.1 37.9C63 39.2 63.6 41.8 62.2 43.7L62.2 43.7 56.6 51.8 52.5 57.8C51.6 59.2 50 60 48.4 60L20.8 60C20.1 60 19.3 59.8 18.7 59.5L15.5 58 11.3 56" class="MsftOfcThm_Background1_Stroke_v2" stroke="#051C2C" stroke-width="1.3334" stroke-miterlimit="10" fill="none"/><rect x="1" y="37.3" width="10.4" height="24.8" class="MsftOfcThm_Background1_Stroke_v2" stroke="#051C2C" stroke-width="1.3334" stroke-miterlimit="10" fill="none"/><circle cx="33.2" cy="8.2" r="6.3" class="MsftOfcThm_Background1_Stroke_v2" stroke="#051C2C" stroke-width="1.3334" stroke-miterlimit="10" fill="none"/><circle cx="51.9" cy="16.4" r="6.3" class="MsftOfcThm_Background1_Stroke_v2" stroke="#051C2C" stroke-width="1.3334" stroke-miterlimit="10" fill="none"/><circle cx="35.3" cy="26.7" r="6.3" class="MsftOfcThm_Background1_Stroke_v2" stroke="#051C2C" stroke-width="1.3334" stroke-miterlimit="10" fill="none"/></svg>