<svg viewBox="0 0 64 64" xmlns="http://www.w3.org/2000/svg" xmlns:xlink="http://www.w3.org/1999/xlink" id="Layer_3" overflow="hidden"><style>
.MsftOfcThm_Accent2_Stroke_v2 {
 stroke:#00A9F4; 
}
</style>
<circle cx="14" cy="36.4" r="13" class="MsftOfcThm_Accent2_Stroke_v2" stroke="#00A9F4" stroke-width="1.12281" stroke-miterlimit="10" fill="none"/><circle cx="32.1" cy="36.6" r="2" class="MsftOfcThm_Accent2_Stroke_v2" stroke="#00A9F4" stroke-width="1.12281" stroke-miterlimit="10" fill="none"/><path d="M8 38.7C7.7 38 7.6 37.2 7.6 36.5 7.6 32.9 10.4 30.1 14 30.1L14 30.1C14.4 30.1 14.8 30.1 15.2 30.2" class="MsftOfcThm_Accent2_Stroke_v2" stroke="#00A9F4" stroke-width="1.12281" stroke-miterlimit="10" fill="none"/><circle cx="50" cy="36.6" r="13" class="MsftOfcThm_Accent2_Stroke_v2" stroke="#00A9F4" stroke-width="1.12281" stroke-miterlimit="10" fill="none"/><path d="M44.1 38.7C43.8 38 43.7 37.2 43.7 36.4 43.7 32.8 46.5 30 50.1 30L50.1 30C50.5 30 50.9 30 51.3 30.1" class="MsftOfcThm_Accent2_Stroke_v2" stroke="#00A9F4" stroke-width="1.12281" stroke-miterlimit="10" fill="none"/><path d="M23.3 27.4C23.3 27.4 30.5 33.5 40.8 27.4" class="MsftOfcThm_Accent2_Stroke_v2" stroke="#00A9F4" stroke-width="1.12281" stroke-miterlimit="10" fill="none"/><path d="M23.9 44.8C23.9 44.8 30.5 39.4 40.5 45.5" class="MsftOfcThm_Accent2_Stroke_v2" stroke="#00A9F4" stroke-width="1.12281" stroke-miterlimit="10" fill="none"/><path d="M27.9 22.6C27.8 20.9 27.4 19.2 26.6 17.8 24.8 14.6 21.2 13.9 17.9 15 14.6 16.1 11.9 19 9.9 21.6 9.1 22.7 8.4 23.7 7.8 25" class="MsftOfcThm_Accent2_Stroke_v2" stroke="#00A9F4" stroke-width="1.12281" stroke-miterlimit="10" fill="none"/><path d="M35.7 22.6C35.8 20.9 36.2 19.2 37 17.8 38.8 14.6 42.4 13.9 45.7 15 49.1 16 51.8 19 53.7 21.6 54.5 22.7 55.1 23.7 55.8 25" class="MsftOfcThm_Accent2_Stroke_v2" stroke="#00A9F4" stroke-width="1.12281" stroke-miterlimit="10" fill="none"/><line x1="26.3" y1="17.5" x2="37.1" y2="17.5" class="MsftOfcThm_Accent2_Stroke_v2" stroke="#00A9F4" stroke-width="1.12281" stroke-miterlimit="10" fill="none"/></svg>