<svg viewBox="0 0 64 64" xmlns="http://www.w3.org/2000/svg" xmlns:xlink="http://www.w3.org/1999/xlink" id="Layer_3" xml:space="preserve" overflow="hidden"><style>
.MsftOfcThm_Background1_Stroke_v2 {
 stroke:#051C2C; 
}
</style>
<path d="M49.3 50.7C49.3 48.3 47.8 47.6 44.9 47L44.2 46.8 44.2 41C45.6 41.2 46.9 41.8 47.7 42.6L48.3 42C47.4 41 45.8 40.3 44.2 40.1L44.2 38 43.2 38 43.2 40.2C40.5 40.2 38.8 41.6 38.8 43.7 38.8 46.7 41.7 47.2 42.6 47.4L43.2 47.6 43.2 54.3C40.4 54.2 40 53 39.4 52L39.2 51.7 38.4 52.1 38.5 52.4C39.1 53.4 39.9 55 43.2 55.1L43.2 57 44.2 57 44.2 55C47.2 54.9 49.3 53.2 49.3 50.7ZM42.8 46.6C40.7 46.2 39.7 45.2 39.7 43.6 39.7 42 41.1 40.9 43.3 40.9L43.3 46.6 42.8 46.6ZM44.2 54.2 44.2 47.8 44.7 47.9C47.6 48.5 48.4 49.2 48.4 50.8 48.4 52.7 46.7 54 44.2 54.2Z" class="MsftOfcThm_Background1_Stroke_v2" stroke="#051C2C" stroke-width="1.33329" fill="none"/><path d="M35.5 8.9 43.4 8.9 43.4 26.2" class="MsftOfcThm_Background1_Stroke_v2" stroke="#051C2C" stroke-width="1.33329" stroke-miterlimit="10" fill="none"/><path d="M24.5 55.5 4.9 55.5 4.9 8.9 12.6 8.9" class="MsftOfcThm_Background1_Stroke_v2" stroke="#051C2C" stroke-width="1.33329" stroke-miterlimit="10" fill="none"/><circle cx="43.7" cy="47.6" r="15.4" class="MsftOfcThm_Background1_Stroke_v2" stroke="#051C2C" stroke-width="1.33329" stroke-miterlimit="10" fill="none"/><line x1="12" y1="20.8" x2="36.3" y2="20.8" class="MsftOfcThm_Background1_Stroke_v2" stroke="#051C2C" stroke-width="1.33329" stroke-miterlimit="10" fill="none"/><line x1="12.1" y1="28.4" x2="36.4" y2="28.4" class="MsftOfcThm_Background1_Stroke_v2" stroke="#051C2C" stroke-width="1.33329" stroke-miterlimit="10" fill="none"/><line x1="12" y1="36.2" x2="27.3" y2="36.2" class="MsftOfcThm_Background1_Stroke_v2" stroke="#051C2C" stroke-width="1.33329" stroke-miterlimit="10" fill="none"/><line x1="12" y1="44" x2="24.3" y2="44" class="MsftOfcThm_Background1_Stroke_v2" stroke="#051C2C" stroke-width="1.33329" stroke-miterlimit="10" fill="none"/><path d="M28.3 5.3C28.5 3 26.7 1.1 24.4 1 22.1 0.9 20.1 2.6 20 5 20 5.1 20 5.3 20 5.4L12.6 5.4 12.6 13.5 35.5 13.5 35.5 5.3 28.3 5.3Z" class="MsftOfcThm_Background1_Stroke_v2" stroke="#051C2C" stroke-width="1.33329" stroke-miterlimit="10" fill="none"/></svg>