<svg viewBox="0 0 64 64" xmlns="http://www.w3.org/2000/svg" xmlns:xlink="http://www.w3.org/1999/xlink" id="Layer_5" overflow="hidden"><style>
.MsftOfcThm_Accent2_Stroke_v2 {
 stroke:#00A9F4; 
}
</style>
<path d="M38 46.3C46.4 42.9 50.4 33.6 47.1 25.2 43.7 16.8 34.4 12.8 26 16.1 17.6 19.4 13.6 28.8 16.9 37.2 18.6 41.5 22 44.8 26.3 46.4L26.3 56.2 37.9 56.2 38 46.3Z" class="MsftOfcThm_Accent2_Stroke_v2" stroke="#00A9F4" stroke-width="1.12281" stroke-miterlimit="10" fill="none"/><line x1="24.4" y1="59.7" x2="39.6" y2="59.7" class="MsftOfcThm_Accent2_Stroke_v2" stroke="#00A9F4" stroke-width="1.12281" stroke-miterlimit="10" fill="none"/><line x1="26.6" y1="63" x2="37.3" y2="63" class="MsftOfcThm_Accent2_Stroke_v2" stroke="#00A9F4" stroke-width="1.12281" stroke-miterlimit="10" fill="none"/><line x1="44.6" y1="12.9" x2="51.8" y2="6.5" class="MsftOfcThm_Accent2_Stroke_v2" stroke="#00A9F4" stroke-width="1.12281" stroke-miterlimit="10" fill="none"/><line x1="18.8" y1="12.9" x2="11.7" y2="6.5" class="MsftOfcThm_Accent2_Stroke_v2" stroke="#00A9F4" stroke-width="1.12281" stroke-miterlimit="10" fill="none"/><line x1="12.7" y1="25.6" x2="3" y2="25.6" class="MsftOfcThm_Accent2_Stroke_v2" stroke="#00A9F4" stroke-width="1.12281" stroke-miterlimit="10" fill="none"/><line x1="61" y1="25.6" x2="51.4" y2="25.6" class="MsftOfcThm_Accent2_Stroke_v2" stroke="#00A9F4" stroke-width="1.12281" stroke-miterlimit="10" fill="none"/><line x1="32.2" y1="9.7" x2="32.2" y2="1" class="MsftOfcThm_Accent2_Stroke_v2" stroke="#00A9F4" stroke-width="1.12281" stroke-miterlimit="10" fill="none"/></svg>