<svg viewBox="0 0 64 64" xmlns="http://www.w3.org/2000/svg" xmlns:xlink="http://www.w3.org/1999/xlink" id="Layer_5" xml:space="preserve" overflow="hidden"><style>
.MsftOfcThm_Background1_Stroke_v2 {
 stroke:#051C2C; 
}
</style>
<ellipse cx="8.3" cy="8.9" rx="6.4" ry="6.2" class="MsftOfcThm_Background1_Stroke_v2" stroke="#051C2C" stroke-width="1.33329" stroke-miterlimit="10" fill="none"/><ellipse cx="55.7" cy="8.9" rx="6.4" ry="6.2" class="MsftOfcThm_Background1_Stroke_v2" stroke="#051C2C" stroke-width="1.33329" stroke-miterlimit="10" fill="none"/><path d="M8.5 26.4 13.6 31.6 50.3 31.6 55.3 26.5" class="MsftOfcThm_Background1_Stroke_v2" stroke="#051C2C" stroke-width="1.33329" stroke-miterlimit="10" fill="none"/><path d="M11.3 29.3 11.3 39.8 18.5 39.8C20.7 39.8 22.7 41.3 23.3 43.4L28.4 61.3 22.1 61.3 17.5 46.9 6 46.9C3.2 46.9 1 44.7 1 41.9L1 22.1C1 19.9 2.8 18.1 5 18.1L9.1 18.1C10.2 18.1 11.2 18.5 11.9 19.3L18.9 26.2 26.5 26.2 26.5 31.7" class="MsftOfcThm_Background1_Stroke_v2" stroke="#051C2C" stroke-width="1.33329" stroke-miterlimit="10" fill="none"/><path d="M52.7 29.1 52.7 39.8 45.6 39.8C43.4 39.8 41.4 41.3 40.8 43.4L35.5 61.3 41.9 61.3 46.3 46.9 58 46.9C60.8 46.9 63 44.7 63 41.9L63 22.1C63 19.9 61.2 18.1 59 18.1L55 18.1C53.9 18.1 52.9 18.5 52.2 19.3L45.2 26.2 37.6 26.2 37.6 31.7" class="MsftOfcThm_Background1_Stroke_v2" stroke="#051C2C" stroke-width="1.33329" stroke-miterlimit="10" fill="none"/></svg>