<svg viewBox="0 0 64 64" xmlns="http://www.w3.org/2000/svg" xmlns:xlink="http://www.w3.org/1999/xlink" id="Layer_5" overflow="hidden"><style>
.MsftOfcThm_Text1_Stroke_v2 {
 stroke:#FFFFFF; 
}
</style>
<path d="M54.7 45.5 59.9 45.5C61.5 45.5 62.9 46.8 62.9 48.5L62.9 48.5C62.9 50.1 61.6 51.5 60 51.5L60 51.5 53.6 51.5" class="MsftOfcThm_Text1_Stroke_v2" stroke="#FFFFFF" stroke-width="1.12281" stroke-miterlimit="10" fill="none"/><path d="M53.6 51.5 58.7 51.5C60.2 51.5 61.6 52.7 61.6 54.3L61.6 54.5C61.6 56 60.4 57.3 58.7 57.3L52.6 57.3" class="MsftOfcThm_Text1_Stroke_v2" stroke="#FFFFFF" stroke-width="1.12281" stroke-miterlimit="10" fill="none"/><path d="M52.6 57.3 55.7 57.3C57.3 57.4 58.6 58.7 58.5 60.3 58.4 61.8 57.3 63 55.7 63.1L44.5 63.1C41.8 63.1 39.4 62.1 37 61L31.7 58.8 31.4 58.7 24.6 58.7" class="MsftOfcThm_Text1_Stroke_v2" stroke="#FFFFFF" stroke-width="1.12281" stroke-miterlimit="10" fill="none"/><path d="M54.7 45.5 59.9 45.5C61.5 45.4 62.8 44 62.7 42.4 62.6 40.9 61.5 39.7 59.9 39.6L44.5 39.6 44.5 39.4C44.4 36.7 42.1 34.7 39.6 34.8 37 34.8 35.6 36.8 34.2 38.4L30.8 41.9 28.8 41.9" class="MsftOfcThm_Text1_Stroke_v2" stroke="#FFFFFF" stroke-width="1.12281" stroke-miterlimit="10" fill="none"/><path d="M45.4 9.2 45.4 4C45.4 2.4 46.7 1 48.4 1L48.4 1C50 1 51.4 2.3 51.4 4L51.4 10.3" class="MsftOfcThm_Text1_Stroke_v2" stroke="#FFFFFF" stroke-width="1.12281" stroke-miterlimit="10" fill="none"/><path d="M51.4 10.4 51.4 5.3C51.4 3.8 52.7 2.5 54.2 2.5L54.4 2.5C55.8 2.5 57.2 3.7 57.2 5.4L57.2 11.5" class="MsftOfcThm_Text1_Stroke_v2" stroke="#FFFFFF" stroke-width="1.12281" stroke-miterlimit="10" fill="none"/><path d="M57.2 11.4 57.2 8.3C57.1 6.7 58.2 5.1 59.9 5.1 61.5 5 63 6.2 63 7.9 63 8 63 8.1 63 8.2L63 19.4C63 22.1 62 24.5 60.9 26.9L58.6 32.2 58.5 32.5 58.5 39.5" class="MsftOfcThm_Text1_Stroke_v2" stroke="#FFFFFF" stroke-width="1.12281" stroke-miterlimit="10" fill="none"/><path d="M45.4 9.2 45.4 4C45.3 2.4 43.9 1.1 42.3 1.2 40.8 1.3 39.6 2.4 39.5 4L39.5 19.5 39.4 19.5C36.7 19.6 34.7 21.9 34.8 24.5 34.8 27.1 36.8 28.5 38.4 29.9L41.9 33.3 41.9 35.3" class="MsftOfcThm_Text1_Stroke_v2" stroke="#FFFFFF" stroke-width="1.12281" stroke-miterlimit="10" fill="none"/><path d="M9.3 18.6 4.1 18.6C2.5 18.6 1.1 17.3 1.1 15.7L1.1 15.7C1.1 14.1 2.4 12.7 4.1 12.7L10.4 12.7" class="MsftOfcThm_Text1_Stroke_v2" stroke="#FFFFFF" stroke-width="1.12281" stroke-miterlimit="10" fill="none"/><path d="M10.4 12.7 5.4 12.7C3.9 12.7 2.6 11.4 2.6 9.9L2.6 9.7C2.6 8.3 3.8 6.9 5.5 6.9L11.5 6.9" class="MsftOfcThm_Text1_Stroke_v2" stroke="#FFFFFF" stroke-width="1.12281" stroke-miterlimit="10" fill="none"/><path d="M11.3 6.9 8.3 6.9C6.7 6.8 5.6 5.4 5.7 3.9 5.8 2.3 6.9 1.2 8.5 1.1L19.7 1.1C22.4 1.1 24.8 2.1 27.2 3.2L32.5 5.5 32.8 5.6 39.5 5.6" class="MsftOfcThm_Text1_Stroke_v2" stroke="#FFFFFF" stroke-width="1.12281" stroke-miterlimit="10" fill="none"/><path d="M9.3 18.6 4.1 18.6C2.5 18.5 1 19.7 1 21.4 0.9 23 2.1 24.5 3.8 24.5 3.9 24.5 4 24.5 4.1 24.5L19.6 24.5 19.6 24.6C19.7 27.3 22 29.3 24.6 29.2 27.2 29.2 28.6 27.2 30 25.6L33.4 22.1 35.3 22.1" class="MsftOfcThm_Text1_Stroke_v2" stroke="#FFFFFF" stroke-width="1.12281" stroke-miterlimit="10" fill="none"/><path d="M18.6 54.7 18.6 59.9C18.6 61.5 17.3 62.9 15.7 62.9L15.7 62.9C14.2 62.9 12.9 61.5 12.9 59.8L12.9 53.5" class="MsftOfcThm_Text1_Stroke_v2" stroke="#FFFFFF" stroke-width="1.12281" stroke-miterlimit="10" fill="none"/><path d="M12.9 53.5 12.9 58.6C12.9 60.1 11.7 61.5 10 61.5L9.8 61.5C8.3 61.5 6.9 60.3 6.9 58.6L6.9 52.5" class="MsftOfcThm_Text1_Stroke_v2" stroke="#FFFFFF" stroke-width="1.12281" stroke-miterlimit="10" fill="none"/><path d="M6.9 54.7 6.9 55.7C6.8 57.3 5.4 58.6 3.8 58.5 2.2 58.4 1.2 57.2 1.1 55.7L1.1 44.5C1.1 41.8 2.1 39.4 3.2 37L5.4 31.8 5.5 31.5 5.5 24.5" class="MsftOfcThm_Text1_Stroke_v2" stroke="#FFFFFF" stroke-width="1.12281" stroke-miterlimit="10" fill="none"/><path d="M18.6 54.7 18.6 59.9C18.7 61.5 20.1 62.8 21.7 62.7 23.2 62.6 24.4 61.5 24.5 59.9L24.5 44.5 24.7 44.5C27.4 44.4 29.4 42.1 29.3 39.6 29.3 37 27.3 35.6 25.7 34.2L22.2 30.8 22.2 28.7" class="MsftOfcThm_Text1_Stroke_v2" stroke="#FFFFFF" stroke-width="1.12281" stroke-miterlimit="10" fill="none"/></svg>