<svg viewBox="0 0 64 64" xmlns="http://www.w3.org/2000/svg" xmlns:xlink="http://www.w3.org/1999/xlink" id="Layer_5" xml:space="preserve" overflow="hidden"><path d="M58.5 63 55.3 36.5 36.5 16.5 40.8 1 32 1 23.2 1 27.5 16.5 8.7 36.5 5.5 63 32 63Z" stroke="#051C2C" stroke-width="1.33333" stroke-miterlimit="10" fill="none"/><line x1="27.5" y1="16.5" x2="36.5" y2="16.5" stroke="#051C2C" stroke-width="1.33333" stroke-miterlimit="10" fill="none"/><line x1="45.2" y1="12.1" x2="36.5" y2="16.5" stroke="#051C2C" stroke-width="1.33333" stroke-miterlimit="10" fill="none"/><line x1="45.3" y1="16.5" x2="36.5" y2="16.5" stroke="#051C2C" stroke-width="1.33333" stroke-miterlimit="10" fill="none"/><path d="M38.4 48C38.4 45.2 36.6 44.3 33.2 43.6L32.4 43.4 32.4 36.5C34 36.7 35.6 37.4 36.5 38.4L37.2 37.7C36.1 36.5 34.2 35.7 32.4 35.5L32.4 32.9 31.4 32.9 31.4 35.5C28.2 35.5 26 37.2 26 39.7 26 43.2 29.4 43.9 30.5 44.1L31.5 44.3 31.5 52.2C28.2 52.1 27.4 50.7 26.7 49.5L26.5 49.2 25.6 49.7 25.7 50C26.4 51.2 27.5 53.1 31.4 53.2L31.4 55.5 32.4 55.5 32.4 53.1C36 52.9 38.4 50.9 38.4 48ZM30.7 43.1C28.2 42.6 27 41.5 27 39.6 27 37.7 28.8 36.4 31.4 36.4L31.4 43.2 30.7 43.1ZM32.4 52.1 32.4 44.5 33 44.6C36.4 45.3 37.4 46.1 37.4 48 37.4 50.3 35.4 51.9 32.4 52.1Z" stroke-width="1.33333" fill="#051C2C"/></svg>